<svg xmlns="http://www.w3.org/2000/svg" width="115" height="115" fill="none"><g clip-path="url(#a)"><path fill="red" d="M3.75 38.094A56.866 56.866 0 0 0 .5 57.11c0 6.525 1.086 12.88 3.228 18.956a57.007 57.007 0 0 0 13.63 21.552V16.605A57.003 57.003 0 0 0 3.75 38.094ZM97.642 16.652v81.001c5.983-5.935 10.693-13.254 13.63-21.585A56.868 56.868 0 0 0 114.5 57.11a56.94 56.94 0 0 0-3.25-19.017 56.792 56.792 0 0 0-13.608-21.442Z"/><path fill="#fff" d="M57.5.111c-3.026 0-6.062.24-9.026.711a56.837 56.837 0 0 0-31.116 15.783V97.62A56.83 56.83 0 0 0 48.474 113.4a57.398 57.398 0 0 0 11.927.639c14.364-.72 27.493-6.717 37.24-16.386v-81C87.18 6.295 72.849.11 57.5.11Zm1.927 75.275c-.496-.029-.997.707-1.1 1.073-.126.445.662 17.26.662 17.26h-2.978s.788-16.815.663-17.26c-.103-.367-.604-1.102-1.1-1.073-1.81.107-16.145 2.22-16.145 2.22s2.102-4.555 1.985-5.723c-.116-1.167-17.282-14.48-17.282-14.48s3.853-1.05 4.32-2.452c.467-1.402-3.153-11.444-3.153-11.444s9.81 2.686 10.743 1.985c.935-.7 1.752-5.488 1.752-5.488s8.19 10.457 9.722 9.631c1.46-.786-2.948-19.908-2.948-19.908s5.02 3.62 6.422 3.27c1.401-.35 6.51-12.495 6.51-12.495s5.11 12.144 6.51 12.495c1.402.35 6.423-3.27 6.423-3.27s-4.408 19.122-2.948 19.908c1.53.825 9.722-9.631 9.722-9.631s.817 4.787 1.751 5.488c.934.7 10.743-1.985 10.743-1.985s-3.62 10.042-3.153 11.444c.468 1.401 4.321 2.452 4.321 2.452s-17.166 13.313-17.283 14.48c-.116 1.168 1.985 5.722 1.985 5.722s-14.335-2.112-16.144-2.219Z"/><path fill="red" d="M73.585 71.883c.117-1.167 17.283-14.48 17.283-14.48s-3.853-1.05-4.32-2.452C86.08 53.55 89.7 43.507 89.7 43.507s-9.81 2.686-10.744 1.985c-.934-.7-1.751-5.488-1.751-5.488s-8.19 10.457-9.722 9.631c-1.46-.786 2.948-19.908 2.948-19.908s-5.02 3.62-6.422 3.27c-1.402-.35-6.51-12.495-6.51-12.495s-5.11 12.145-6.51 12.495c-1.402.35-6.423-3.27-6.423-3.27s4.408 19.122 2.948 19.908c-1.53.825-9.722-9.631-9.722-9.631s-.817 4.787-1.751 5.488c-.935.7-10.744-1.985-10.744-1.985s3.62 10.043 3.154 11.444c-.468 1.401-4.321 2.452-4.321 2.452s17.166 13.313 17.283 14.48c.116 1.168-1.986 5.722-1.986 5.722s14.336-2.112 16.145-2.219c.496-.029.996.707 1.1 1.073.126.445-.663 17.26-.663 17.26h2.978s-.788-16.815-.663-17.26c.104-.367.605-1.102 1.101-1.073 1.81.107 16.144 2.22 16.144 2.22s-2.102-4.555-1.985-5.723Z"/></g><defs><clipPath id="a"><path fill="#fff" d="M.5.111h114v114H.5z"/></clipPath></defs></svg>