<svg width="169" height="44" viewBox="0 0 169 44" xmlns="http://www.w3.org/2000/svg">
    <g>
    <path d="M29.9873 36.0114H31.9479V24.3847H29.9873V22.167H41.6281V26.328H39.0548V24.6812H34.9555V29.3692H40.2468V31.5869H34.9555V36.0114H37.1054V38.2292H29.9873V36.0114Z" />
    <path d="M71.6374 35.9999V30.7959C71.6374 27.7657 70.1224 26.4043 67.7608 26.4043C65.9005 26.4043 64.4524 27.5571 63.8175 28.9185H63.7729C63.3162 27.1509 62.024 26.4043 60.3976 26.4043C58.4705 26.4043 57.1115 27.8096 56.5211 28.9843V27.9633C56.5211 27.1509 56.0087 26.6788 54.9839 26.6788H51.9316V28.8965H53.235C53.558 28.8965 53.7362 29.0502 53.7362 29.3686V38.2067H58.3257V35.9889H56.6548V33.2661C56.6548 31.1801 57.6016 29.0392 59.6624 29.0392C61.0437 29.0392 61.2442 30.0932 61.2442 31.3448V38.2176H65.8337V35.9999H64.1294V33.1234C64.1294 30.9935 65.1208 29.0283 67.1147 29.0283C68.4738 29.0283 68.7188 30.0274 68.7188 31.3338V38.2067H73.3306V35.9889H71.6374V35.9999Z"/>
    <path d="M51.531 36.0106C51.208 36.0106 51.0297 35.8569 51.0297 35.5166V30.9603C51.0297 28.018 49.3588 26.415 46.2064 26.415C43.3881 26.415 41.5723 27.8423 41.5723 27.8423L42.6529 29.8295C42.6529 29.8295 44.2124 28.7206 45.9613 28.7206C47.1755 28.7206 48.1223 29.2366 48.1223 30.7078V31.0921H47.3871C45.5046 31.0921 40.8037 31.4544 40.8037 34.9786C40.8037 37.3281 42.6863 38.4809 44.6802 38.4809C47.1532 38.4809 48.1892 36.6364 48.3451 36.3071V36.9878C48.3451 37.6465 48.7573 38.2064 49.8378 38.2064H52.5893V36.0106H51.531ZM48.1335 33.222C48.1335 34.6712 47.0084 36.34 45.4266 36.34C44.3461 36.34 43.7223 35.6154 43.7223 34.759C43.7223 33.0134 46.496 32.8377 47.6433 32.8377H48.1335V33.222Z"/>
    <path d="M77.397 22.167H74.4784V24.7251H77.397V22.167ZM77.397 36.0005V26.6793H72.6738V28.8971H74.4896V38.2182H79.079V36.0005H77.397Z"/>
    <path d="M84.3922 35.9565C83.4676 35.9346 83.2448 35.3966 83.2448 34.3756V22.167H78.5439V24.3738H80.3597V34.5622C80.3597 37.7022 82.0752 38.317 83.9354 38.317H84.9937V35.9675H84.3922V35.9565Z"/>
    <path d="M101.725 33.0472V34.2439C101.725 35.2869 103.062 35.8907 104.599 35.8907C106.248 35.8907 107.429 35.1881 107.429 33.9035C107.429 32.2787 105.569 31.7517 103.686 31.0271C101.503 30.2146 99.375 29.2375 99.375 26.372C99.375 23.1442 102.037 21.8926 104.833 21.8926C107.407 21.8926 110.002 22.8587 110.002 24.7142V26.8111H107.273V25.7242C107.273 24.9118 106.059 24.4836 104.845 24.4836C103.508 24.4836 102.416 25.0216 102.416 26.2512C102.416 27.7224 103.931 28.2384 105.624 28.8752C108.064 29.7315 110.492 30.6867 110.492 33.6949C110.492 36.9776 107.696 38.4927 104.622 38.4927C101.915 38.4927 99.0186 37.296 99.0186 34.8807V33.0472H101.725Z"/>
    <path d="M166.335 36V30.7959C166.335 27.7438 164.731 26.4044 162.135 26.4044C160.141 26.4044 158.815 27.5901 158.225 28.688V22.1445H153.502V24.3623H155.318V38.2067H159.907V35.989H158.225V32.9149C158.225 30.7959 159.517 29.0283 161.578 29.0283C163.048 29.0283 163.416 29.9725 163.416 31.3778V38.2067H168.028V35.989H166.335V36Z" fill="currentcolor"/>
    <path d="M138.675 33.5629C138.675 31.3891 139.733 29.358 142.095 29.358H142.807V26.5254H142.273C140.479 26.5254 139.087 27.8429 138.552 29.4897V28.0844C138.552 27.1183 138.029 26.6791 136.993 26.6791H133.94V28.8968H135.244C135.567 28.8968 135.756 29.0725 135.756 29.3909V38.218H140.346V36.0112H138.664V33.5629H138.675Z" fill="currentcolor"/>
    <path d="M133.551 36.0106C133.228 36.0106 133.05 35.8569 133.05 35.5166V30.9603C133.05 28.018 131.379 26.415 128.226 26.415C125.408 26.415 123.592 27.8423 123.592 27.8423L124.673 29.8295C124.673 29.8295 126.232 28.7206 127.981 28.7206C129.195 28.7206 130.142 29.2366 130.142 30.7078V31.0921H129.407C127.524 31.0921 122.812 31.4544 122.812 34.9786C122.812 37.3281 124.695 38.4809 126.689 38.4809C129.162 38.4809 130.198 36.6364 130.365 36.3071V36.9878C130.365 37.6465 130.777 38.2064 131.858 38.2064H134.609V36.0106H133.551ZM130.153 33.222C130.153 34.6712 129.028 36.34 127.447 36.34C126.366 36.34 125.753 35.6154 125.753 34.759C125.753 33.0134 128.527 32.8377 129.674 32.8377H130.153V33.222Z"/>
    <path d="M120.73 35.1432C120.44 35.3408 119.281 36.0874 117.622 36.0874C115.85 36.0874 114.291 35.0005 114.102 33.3207H122.423V32.5412C122.423 26.0856 117.065 26.4149 117.065 26.4149C113.545 26.4149 111.116 28.9072 111.116 32.4643C111.116 35.747 113.533 38.5137 117.41 38.5137C119.961 38.5137 121.476 37.4707 121.832 37.1963L120.73 35.1432ZM117.009 28.7534C118.491 28.7534 119.538 29.6318 119.827 31.1139H114.191C114.48 29.6318 115.527 28.7534 117.009 28.7534Z"/>
    <path d="M153.067 34.8688C152.354 35.3739 151.14 36.0655 149.692 36.0655C147.698 36.0655 146.016 34.781 146.016 32.3986C146.016 30.2906 147.33 28.8524 149.458 28.8524C150.45 28.8524 151.641 29.2147 151.641 29.9832V30.7517H154.159V29.1708C154.159 27.1287 151.318 26.415 149.358 26.415C145.76 26.415 143.075 29.039 143.075 32.4754C143.075 36.2083 146.105 38.4919 149.525 38.4919C151.575 38.4919 153.279 37.6136 154.159 36.889L153.067 34.8688Z"/>
    <path d="M90.1517 28.8967V26.6789H84.3926V28.8967H85.8184L89.8064 38.5362C89.1603 40.1721 88.258 40.6661 87.4671 40.6881C86.9324 40.6771 86.4979 40.5453 86.1972 40.4026V42.84C86.6093 42.9497 87.0883 43.0266 87.6453 43.0266C89.6393 43.0266 91.3102 41.9836 92.2013 39.7L96.49 28.8857H97.849V26.668H92.3239V28.8857H93.6495L91.2434 35.539L88.8372 28.8857" fill="currentcolor"/>
    <path d="M15.0155 34.6822C17.1543 33.2989 18.814 31.2678 19.5047 28.4901H18.3128C17.5664 30.5102 16.096 31.7728 14.2357 32.4535C13.7567 30.7957 13.5117 29.0391 13.5117 27.2275C13.5117 23.33 14.6813 19.7069 16.6975 16.6768H14.2357C12.2975 19.3337 10.983 22.4627 10.4817 25.8552C9.11157 25.0098 8.03104 23.9338 7.39609 22.1772H6.09277C6.83912 24.9 8.28725 26.7774 10.2589 28.2486C10.2589 28.4572 10.2478 28.6658 10.2478 28.8744C10.2478 34.1992 12.264 39.0628 15.5836 42.7627H21.4652C18.647 40.7097 16.3968 37.921 15.0155 34.6822Z"/>
    <path d="M21.9219 17.6214H31.7246V7.95996H21.9219V17.6214ZM29.4187 15.3488H24.2277V10.2326H29.4187V15.3488Z"/>
    <path d="M16.1523 29.5664H26.5343V19.334H16.1523V29.5664ZM24.2285 27.2827H18.4582V21.5956H24.2285V27.2827Z"/>
    <path d="M12.1084 17.6209H20.1845V9.66113H12.1084V17.6209ZM18.4579 15.9191H13.8462V11.3738H18.4579V15.9191Z"/>
    <path d="M4.03223 11.3742H10.3817V5.11621H4.03223V11.3742ZM8.65511 9.66149H5.76998V6.81795H8.65511V9.66149Z"/>
    <path d="M12.1084 7.95973H20.1845V0H12.1084V7.95973ZM18.4579 6.258H13.8462V1.70174H18.4579V6.258Z"/>
    <path d="M0 23.3086H10.382V13.0762H0V23.3086ZM8.07611 21.0359H2.30587V15.3488H8.07611V21.0359Z"/>
    </g>
</svg>
