<svg xmlns="http://www.w3.org/2000/svg" width="465" height="218" fill="none"><g clip-path="url(#a)"><path fill="#C0285C" d="M106.239 167.535H55.842v11.654h50.397v-11.654ZM156.651 149.831h-50.397v11.654h50.397v-11.654ZM207.063 132.127h-50.397v11.654h50.397v-11.654ZM257.475 114.423h-50.397v11.654h50.397v-11.654Z"/><path fill="#B4E8F4" d="M390.885 218.026H12.842c-6.985 0-12.649-3.463-12.649-7.736 0-4.272 5.664-7.735 12.65-7.735h378.042c6.988 0 12.649 3.463 12.649 7.735 0 4.273-5.663 7.736-12.649 7.736Z"/><path fill="#0383A4" d="M120.248 194.335c-5.791 0-10.675 3.899-12.189 9.224h24.379c-1.514-5.325-6.398-9.224-12.19-9.224ZM179.665 189.971c-8.531 0-15.726 5.745-17.956 13.589h35.914c-2.23-7.844-9.425-13.589-17.956-13.589h-.002Z"/><path fill="#0383A4" d="M123.937 203.559c2.753-9.565 13.665-16.707 26.707-16.707 13.042 0 23.954 7.142 26.707 16.707h-53.415.001Z"/><path fill="#1698B8" d="M113.336 43.983c6.479 0 11.942 4.36 13.636 10.319h-27.27c1.693-5.957 7.156-10.32 13.634-10.32ZM46.875 39.102c9.544 0 17.591 6.424 20.086 15.2H26.79c2.495-8.776 10.542-15.2 20.086-15.2Z"/><path fill="#1698B8" d="M109.211 54.302c-3.08-10.698-15.285-18.69-29.874-18.69-14.589 0-26.795 7.992-29.874 18.69h59.75-.002Z"/><path fill="#5BC5DE" d="M38.791 53.015c2.902 0 5.35 1.953 6.108 4.622H32.685c.759-2.669 3.206-4.622 6.108-4.622h-.002ZM9.025 50.83c4.274 0 7.878 2.876 8.995 6.807H.03c1.116-3.931 4.722-6.808 8.996-6.808h-.001Z"/><path fill="#5BC5DE" d="M36.943 57.637c-1.38-4.791-6.846-8.37-13.38-8.37-6.533 0-12 3.578-13.38 8.37h26.761Z"/><path fill="#84DAED" d="M394.834 109.796a4.202 4.202 0 0 1 4.036 3.053h-8.071a4.201 4.201 0 0 1 4.035-3.053ZM375.165 108.352c2.824 0 5.205 1.902 5.945 4.499h-11.889c.738-2.597 3.12-4.499 5.945-4.499h-.001Z"/><path fill="#84DAED" d="M393.613 112.849c-.911-3.166-4.523-5.53-8.842-5.53-4.318 0-7.93 2.365-8.841 5.53h17.683Z"/><path fill="#B4E8F4" d="M206.024 82.492c6.442 0 11.873 4.336 13.557 10.258h-27.112c1.684-5.922 7.116-10.258 13.557-10.258h-.002ZM139.947 77.638c9.488 0 17.49 6.387 19.97 15.112h-39.94c2.48-8.725 10.482-15.112 19.969-15.112h.001Z"/><path fill="#B4E8F4" d="M201.922 92.75c-3.063-10.636-15.196-18.58-29.701-18.58s-26.64 7.944-29.701 18.58h59.403-.001Z"/><path fill="#055C7F" d="M86.53 189.573c8.625 0 15.899 5.806 18.154 13.737H68.375c2.255-7.931 9.528-13.737 18.154-13.737Z"/><path fill="#055C7F" d="M107.774 193.83c5.952 0 10.971 4.007 12.528 9.48H95.246c1.557-5.473 6.576-9.48 12.528-9.48ZM80.772 203.31c-2.439-8.469-12.102-14.795-23.652-14.795s-21.212 6.326-23.651 14.795h47.303Z"/><path fill="#1698B8" d="M341.975 203.098c3.063 0 5.647 2.062 6.447 4.879h-12.895c.801-2.816 3.384-4.879 6.447-4.879h.001ZM310.551 200.791c4.512 0 8.318 3.038 9.497 7.187h-18.995c1.18-4.15 4.984-7.187 9.497-7.187h.001Z"/><path fill="#1698B8" d="M340.025 207.978c-1.456-5.059-7.227-8.837-14.126-8.837-6.898 0-12.669 3.778-14.126 8.837h28.252Z"/><path fill="#fff" d="M190.975 31.904a5.303 5.303 0 0 1 5.095 3.856h-10.191a5.304 5.304 0 0 1 5.095-3.856h.001ZM166.139 30.08c3.565 0 6.573 2.4 7.506 5.679h-15.012c.933-3.28 3.939-5.68 7.506-5.68Z"/><path fill="#fff" d="M189.433 35.76c-1.152-3.998-5.712-6.984-11.164-6.984s-10.014 2.986-11.164 6.984h22.328ZM229.317 79.807c3.158 0 5.823 2.127 6.648 5.031h-13.297c.826-2.904 3.49-5.03 6.649-5.03ZM196.908 77.427c4.654 0 8.578 3.132 9.794 7.411h-19.589c1.216-4.279 5.142-7.411 9.794-7.411h.001Z"/><path fill="#fff" d="M227.304 84.839c-1.502-5.216-7.454-9.112-14.567-9.112s-13.065 3.896-14.567 9.112h29.135-.001Z"/><path fill="#39AECB" d="M79.242 112.488c-3.462 0-6.383 2.331-7.289 5.515h14.578c-.906-3.184-3.827-5.515-7.289-5.515ZM114.771 109.879c-5.102 0-9.404 3.434-10.738 8.124h21.474c-1.334-4.69-5.636-8.124-10.738-8.124h.002Z"/><path fill="#39AECB" d="M81.447 118.003c1.646-5.718 8.171-9.989 15.97-9.989 7.799 0 14.324 4.271 15.97 9.989h-31.94Z"/><path fill="#5BC5DE" d="M229.577 201.05c-4.35 0-8.017 2.928-9.155 6.928h18.309c-1.137-4-4.804-6.928-9.154-6.928Z"/><path fill="#5BC5DE" d="M231.531 207.978c1.459-5.067 7.241-8.853 14.152-8.853s12.693 3.784 14.152 8.853h-28.304ZM186.34 203.033a4.046 4.046 0 0 1 3.888 2.943h-7.777a4.049 4.049 0 0 1 3.889-2.943ZM167.386 201.64c2.722 0 5.017 1.832 5.728 4.335h-11.456c.712-2.503 3.006-4.335 5.728-4.335Z"/><path fill="#5BC5DE" d="M185.163 205.975c-.878-3.051-4.36-5.329-8.52-5.329-4.16 0-7.641 2.278-8.52 5.329H185.163Z"/><path fill="#D9AD93" d="M177.382 103.009c.746-.752 1.404-1.033 2.242-.754a1.722 1.722 0 0 1 1.068 2.23l-9.382 25.452a.79.79 0 0 1-1.5-.499l.33-1.126c4.383-18.1 4.815-22.485 7.242-25.303Z"/><path fill="#D9AD93" d="M154.696 97.846c-2.576-1.964-2.342-3.73-1.808-4.775a1.712 1.712 0 0 1 2.343-1.192l24.847 10.701a.798.798 0 0 1 .187 1.346 2.734 2.734 0 0 1-2.67.908c-5.202-1.135-19.548-4.434-22.897-6.989h-.002Z"/><path fill="#202121" d="M170.513 129.817c.58.005 1.093-.075 1.398-.204 2.023.306 6.141 1.304 6.002 2.321-.05.374-8.102.044-8.661-.028-.394-.049-.22-1.219-.084-1.906a.353.353 0 0 1 .421-.275c.265.055.581.088.923.092h.001Z"/><path fill="#333436" d="M152.989 97.989s6.217 3.293 22.675 6.908c0 0-2.682 2.146-5.242 20.624h2.804s8.289-20.191 7.924-21.904c-.366-1.713-1.524-1.713-2.439-2.142-.914-.429-23.467-9.894-23.467-9.894l-3.824 1.264 1.568 5.144h.001Z"/><path fill="#D9AD93" d="M150.348 121.528c.739-.76 1.393-1.048 2.234-.778a1.722 1.722 0 0 1 1.091 2.219l-9.112 25.55a.79.79 0 0 1-.985.489.796.796 0 0 1-.521-.973l.318-1.128c4.192-18.145 4.579-22.535 6.975-25.379Z"/><path fill="#fff" d="M147.709 97.274c.733-3.163 2.434-3.67 3.602-3.606.078-.015.159-.028.242-.032a1.715 1.715 0 0 1 1.798 1.691l.422 27.135a.791.791 0 0 1-1.148.72 2.75 2.75 0 0 1-1.917-2.076c-1.094-5.23-3.954-19.72-3.001-23.833l.002.001Z"/><path fill="#202121" d="M143.43 148.408c.58 0 1.091-.087 1.396-.22 2.027.285 6.156 1.24 6.028 2.257-.047.375-8.103.129-8.662.065-.394-.046-.233-1.217-.103-1.905a.353.353 0 0 1 .418-.28c.265.052.582.081.925.081l-.002.002Z"/><path fill="#333436" d="m144.154 143.497 2.245.562s7.761-20.288 7.708-21.299c-.054-1.01 0-30.052 0-30.052l-3.983-1.145-2.823 1.493s-1.229 12.331 2.904 27.949c0 0-2.886 1.152-6.053 22.492h.002Z"/><path fill="#055C7F" d="M146.404 88.938a52.505 52.505 0 0 1-.253-3.015 48.07 48.07 0 0 1-.074-3.747 47.3 47.3 0 0 1 .236-3.992c.257-2.53.712-4.9 1.3-7.162a26.36 26.36 0 0 1 1.152-3.468c1.236-2.972 5.161-3.587 7.256-1.152l.452.526c1.159 1.342 1.471 3.205.858 4.872-.671 1.835-1.06 4.567-.744 8.885.02.265.042.536.066.814.038.394.08.798.123 1.219a80.595 80.595 0 0 0 .78 5.273l.121.661.098.523c.077.418.163.85.251 1.287a125.76 125.76 0 0 0 .603 2.816c-1.137.342-2.437.334-3.627.151-2.002-.306-3.997-.979-6.004-.72-.672.086-1.326.275-1.982.453a67.213 67.213 0 0 1-.474-3.059 52.47 52.47 0 0 1-.14-1.167l.002.002Z"/><path fill="#202121" d="M159.804 58.962c.01-.293-.175-.573-.21-.854-.035-.29.077-.605 0-.88-.079-.279-.343-.487-.464-.746-.122-.262-.113-.599-.274-.836-.16-.238-.475-.356-.67-.565-.195-.21-.29-.534-.517-.71-.225-.177-.56-.192-.812-.332-.248-.139-.438-.416-.71-.515-.267-.098-.589-.007-.874-.062-.277-.054-.543-.26-.834-.27-.291-.009-.57.177-.85.212-.289.036-.604-.078-.877 0-.278.08-.485.344-.743.466-.261.123-.597.113-.833.274-.238.162-.354.477-.563.673-.209.196-.532.291-.708.519-.176.226-.191.563-.33.815-.138.25-.415.44-.513.713-.098.268-.007.592-.062.877-.054.279-.259.545-.268.837-.01.293.176.573.21.854.036.29-.077.605 0 .88.08.279.343.487.464.746.123.262.113.599.274.836.161.238.475.356.67.565.195.21.29.534.517.71.225.177.561.192.812.332.249.139.438.416.71.515.267.098.59.007.874.062.278.054.543.26.834.27.291.009.57-.177.851-.212.288-.036.603.078.876 0 .278-.08.485-.344.744-.466.261-.123.596-.113.832-.274.238-.162.355-.477.563-.673.209-.196.532-.291.708-.519.176-.226.191-.563.33-.815.139-.25.415-.44.514-.713.097-.268.007-.592.062-.877.053-.279.258-.545.267-.837Z"/><path fill="#202121" d="M158.26 64.688s.551-1.16.099-2.269c-.452-1.108-.933.075-.933.075l.834 2.193v.001ZM151.066 61.432c.05.118.707 2.36 1.072 2.426.5.09.478-1.604.478-1.604l-1.548-.822h-.002ZM157.99 59.186s.606-1.048.25-1.859c-.338-.77-.979-1.612-3.865-1.282a.86.86 0 0 0-.759.798l-.083 1.177 4.459 1.168-.002-.002Z"/><path fill="#D9AD93" d="M152.454 60.894c.123 1.717.353 3.13 1.368 3.932.356.281.809.532 1.358.652.342.075.721.097 1.136.043 1.083-.142 1.651-.665 1.928-1.455.318-.906.255-2.163.152-3.602-.194-2.697-1.623-3.971-3.263-3.852-1.641.118-2.873 1.587-2.679 4.282Z"/><path fill="#D9AD93" d="m152.252 61.04 2.827.086c-.011.389-.185 4.08-.502 5.438-.157.41-.878.515-1.61.234-.658-.252-1.098-.731-1.068-1.124h-.003c.19-.815.315-3.277.356-4.634Z"/><path fill="#202121" d="M151.129 61.62s.695.257 1.321-.323c.826-.764 1.66-2.488 1.899-3.283.419-1.398.035-1.804.035-1.804s-2.721.032-3.36.898c-.956 1.296.106 4.513.106 4.513h-.001Z"/><path fill="#202121" d="m153.323 59.52.281 3.934c.03.415.302.772.695.907l.451.156a.464.464 0 0 0 .611-.38l.107-.797a.405.405 0 0 1 .34-.346l1.762-.263a.403.403 0 0 1 .437.26l.276.745a1.29 1.29 0 0 1-.932 1.71l-1.061.23c-.227.05-.462.04-.684-.021l-.051-.014-.03-.01h-.002l-.347-.12-1.137-.393a1.833 1.833 0 0 1-1.229-1.605l-.281-3.933.793-.057.001-.003Z"/><path fill="#D9AD93" d="M151.256 61.051c.039.585.667 1.292 1.089 1.264.421-.03.494-.51.456-1.094-.039-.585-.418-1.108-.84-1.08-.422.028-.744.324-.706.909l.001.001Z"/><path fill="#202121" d="m154.135 57.417 1.731-.11a2.415 2.415 0 0 1 1.618.49l.629.48-.913-1.573-1.426-.434-1.758.245.119.902Z"/><path fill="#D9AD93" d="M178.601 88.858c-.036.65.235 1.277.729 1.699 1.267 1.081 3.727 3.037 4.738 2.877 1.392-.221-2.133-4.27-5.447-4.946l-.02.37Z"/><path fill="#055C7F" d="M153.973 70.05c-.742-2.142 1.151-2.543 1.198-2.576.554-.39 1.779.11 2.198.825l8.538 16.406c.164.25-.284 1.376-.527 1.549a.537.537 0 0 1-.266.098c-.671.193-1.549-.937-1.993-1.498-2.178-2.757-8.182-12.017-9.147-14.802l-.001-.002Z"/><path fill="#055C7F" d="M179.243 90.398c-3.832-.355-12.028-2.378-14.203-3.488-1.804-.921-1.22-2.007-1.209-2.059.116-.612 1.128-1.197 1.84-1.001l14.02 4.757-.447 1.792-.001-.001ZM152.046 68.969c.929-2.067-.921-2.636-.965-2.673-.516-.438-1.782-.05-2.262.625l-9.962 15.576c-.184.234.198.549.425.742a.54.54 0 0 0 .255.121c.652.254 1.542.002 2.082-.466 2.815-2.435 9.218-11.237 10.426-13.924l.001-.001Z"/><path fill="#D9AD93" d="M138.373 97.01a2.09 2.09 0 0 1-.154 1.844c-.86 1.428-2.572 4.068-3.582 4.238-1.389.234.672-4.73 3.598-6.426l.136.345.002-.001Z"/><path fill="#055C7F" d="M138.96 97.731c1.268-3.648 2.836-11.971 2.731-14.418-.086-2.03-1.313-1.947-1.364-1.96-.603-.148-1.554.533-1.671 1.265l-1.506 14.778 1.811.335h-.001Z"/><mask id="b" width="6" height="24" x="151" y="68" maskUnits="userSpaceOnUse" style="mask-type:alpha"><path fill="#2B596E" d="M153.401 68.126c.398 7.302-3.201 13.224-2.019 20.807.844.881 1.755 1.704 2.647 2.537.722-1.06 1.424-2.112 2.034-3.242-2.204-7.327-.01-13.164-1.263-20.128-.467.002-.934.017-1.402.028l.003-.002Z"/></mask><g mask="url(#b)"><path fill="#202121" d="M150 68v24h7V68h-7Z"/></g><path fill="#fff" d="M109.028 118.134a3.63 3.63 0 0 1 3.487 2.64h-6.976a3.63 3.63 0 0 1 3.487-2.64h.002ZM92.027 116.886c2.442 0 4.5 1.644 5.138 3.888H86.889a5.348 5.348 0 0 1 5.137-3.888h.001Z"/><path fill="#fff" d="M107.972 120.774c-.788-2.736-3.911-4.78-7.642-4.78-3.732 0-6.854 2.044-7.642 4.78h15.284Z"/><path fill="#D9AD93" d="m257.648 87.552 4.99-13.998a3.194 3.194 0 0 0-1.922-4.079 3.175 3.175 0 0 0-4.064 1.93l-4.99 13.996a3.193 3.193 0 0 0 1.922 4.08 3.175 3.175 0 0 0 4.064-1.93Z"/><path fill="#D9AD93" d="m261.672 90.941-4.198-5.63c-1.403-1.689-3.697-2.092-5.007-.877-1.253 1.163-1.114 3.36.311 4.906l5.945 6.454c.921 1 2.33 1.163 3.089.36 1.213-1.283 1.152-3.478-.142-5.214l.002.001ZM249.234 79.933l.14-7.036c-.081-2.199-1.787-3.906-3.722-3.724-1.852.174-3.195 2.015-3 4.113l.813 8.752c.126 1.354 1.23 2.337 2.417 2.153 1.899-.296 3.308-2.086 3.351-4.257h.001ZM253.899 66.05l20.868.802a3.429 3.429 0 0 0 3.552-3.302 3.43 3.43 0 0 0-3.289-3.565l-20.868-.801a3.429 3.429 0 0 0-3.552 3.302 3.43 3.43 0 0 0 3.289 3.565Z"/><path fill="#D9AD93" d="m248.539 74.557 7.924-9.863a3.37 3.37 0 0 0-.504-4.725 3.339 3.339 0 0 0-4.707.506l-7.924 9.863a3.37 3.37 0 0 0 .504 4.725 3.339 3.339 0 0 0 4.707-.506ZM240.891 54.317l6.438.38c2.013.007 3.578-1.459 3.417-3.2-.154-1.665-1.834-2.935-3.755-2.836l-8.01.41c-1.239.064-2.142 1.017-1.977 2.089.265 1.712 1.9 3.04 3.885 3.158l.002-.001ZM257.226 55.637l16.953 2.8c1.994.329 3.822-.763 4.086-2.439.264-1.676-1.139-3.302-3.131-3.631l-16.953-2.8c-1.994-.33-3.823.763-4.087 2.438-.263 1.676 1.139 3.302 3.132 3.632Z"/><path fill="#D9AD93" d="m247.44 54.655 8.539.715c2.009.169 3.721-1.038 3.825-2.697.105-1.658-1.44-3.139-3.448-3.307l-8.54-.716c-2.008-.168-3.72 1.038-3.825 2.698-.104 1.657 1.44 3.139 3.449 3.307ZM254.726 45.115l6.114.7c1.921.113 3.553-1.186 3.56-2.834.007-1.578-1.481-2.864-3.324-2.872l-7.688-.036c-1.19-.005-2.141.846-2.081 1.862.095 1.626 1.534 2.965 3.419 3.18ZM269.173 48.064l16.274 5.261a2.986 2.986 0 0 0 3.761-1.936 3.002 3.002 0 0 0-1.929-3.776l-16.273-5.262a2.987 2.987 0 0 0-3.762 1.937 3.003 3.003 0 0 0 1.929 3.776Z"/><path fill="#D9AD93" d="m260.207 45.816 8.807 2.092a2.966 2.966 0 0 0 3.57-2.21 2.978 2.978 0 0 0-2.203-3.584l-8.807-2.092a2.966 2.966 0 0 0-3.57 2.21 2.978 2.978 0 0 0 2.203 3.584ZM289.201 77.96c11.531-3.46 23.884-6.02 24.23-6.573l-.346-22.71c-2.345-2.332-3.897-3.96-26.515-3.947l-8.344.076-3.997 9.036a21.439 21.439 0 0 0-1.396 4.368l-.405 1.976a20.114 20.114 0 0 0 1.225 11.988l1.006 2.338c.528 1.391 15.184 2.495 14.545 3.45l-.003-.001Z"/><path fill="#D9AD93" d="m260.558 75.999 23.669-.734a3.404 3.404 0 0 0 3.29-3.513 3.402 3.402 0 0 0-3.5-3.302l-23.669.734a3.404 3.404 0 0 0-3.29 3.513 3.402 3.402 0 0 0 3.5 3.302ZM350.079 51.614l-9.406-20.328-42.905 25.3 10.98 21.106 41.331-26.078Z"/><path fill="#fff" d="m499.591-21.804-31.174-25.73-143.878 85.012 12.408 24.191 162.644-83.473Z"/><path fill="#333436" d="M511-23.667 477.923-55 334.045 30.01l14.311 29.796L511-23.667Z"/><path fill="#C0285C" d="M300.688 83.913 250.92 91.88l1.828 11.509 49.769-7.966-1.829-11.508Z"/><path fill="#D9AD93" d="M313.491 72.35c-2.16-4.796-4.848-8.403-12.705-9.97-6.279-1.25-10.965-.624-14.448 1.603-3.595 2.3-6.227 6.309-5.088 10.432.292 1.054.37 2.058-.074 2.644l-.02.026c-2.351 3.067-3.973.959-10.085 7.699-6.113 6.74-2.299 10.943-1.143 11.768 1.154.823 3.213-3.081 4.484-4.716 1.272-1.635 6.881-3.438 9.31-5.119 1.422-.983 5.33-2.14 8.329-2.932a55.195 55.195 0 0 0 8.245-2.895c3.901-1.726 7.721-2.303 10.584-4.689.907-.756 1.913-2.972 2.613-3.852h-.002Z"/></g><defs><clipPath id="a"><path fill="#fff" d="M0-.495h465v219H0z"/></clipPath></defs></svg>